<?xml version="1.0" encoding="UTF-8"?>
<svg width="128px" height="48px" viewBox="0 0 128 48" version="1.1" xmlns="http://www.w3.org/2000/svg" xmlns:xlink="http://www.w3.org/1999/xlink">
    <title>力扣</title>
    <g id="力扣" stroke="none" stroke-width="1" fill="none" fill-rule="evenodd">
        <g id="2_black" transform="translate(0.000000, 0.000000)">
            <g id="Shape-3" transform="translate(53.621622, 5.621622)" fill="#FFFFFF" fill-rule="nonzero">
                <path d="M9.62022774,22.0018332 C9.04387361,26.1146861 8.16769153,29.6024851 7.08202666,32.5062081 C6.4941432,34.0785632 5.87865109,35.3885382 5.26919309,36.4511234 C4.88565178,37.1198247 4.57535518,37.572153 4.3722508,37.823423 C3.77171995,38.566368 2.68261764,38.6818174 1.93967269,38.0812866 C1.19672774,37.4807557 1.08127831,36.3916534 1.68180915,35.6487084 C1.68990274,35.6386955 1.73156078,35.5828417 1.80271753,35.4791145 C1.93796721,35.2819571 2.09452076,35.0329146 2.26830222,34.729928 C2.78419401,33.8304747 3.31959825,32.6909538 3.84164988,31.2946727 C4.83796767,28.6299177 5.65252636,25.3874215 6.1942441,21.5217334 C6.48746402,19.4293212 6.81455483,16.3493933 7.17472995,12.2871096 L1.72972973,12.2871096 C0.774426379,12.2871096 0,11.5126832 0,10.5573799 C0,9.6020765 0.774426379,8.82765012 1.72972973,8.82765012 L7.46992639,8.82765012 C7.64998842,6.64179398 7.83751942,4.23306297 8.03243422,1.60201587 C8.10301216,0.649323244 8.93253686,-0.0657719999 9.88522949,0.00480594225 C10.8379221,0.0753838844 11.5530174,0.904908582 11.4824394,1.85760121 C11.295297,4.38373352 11.1148665,6.70692193 10.9410744,8.82765012 L24.6486486,8.82765012 C26.5592554,8.82765012 28.1081081,10.3765029 28.1081081,12.2871096 L27.2432432,34.7735961 C27.2432432,36.6842028 25.6943905,38.2330555 23.7837838,38.2330555 L19.027027,38.2330555 C18.0717237,38.2330555 17.2972973,37.4586291 17.2972973,36.5033258 C17.2972973,35.5480224 18.0717237,34.7735961 19.027027,34.7735961 L22.5354234,34.7735961 C23.2325015,34.7735961 23.8049713,34.2227211 23.8317622,33.526158 L24.5968349,13.6342661 C24.6243714,12.9183179 24.0663035,12.3156045 23.3503553,12.2880681 C23.3337432,12.2874291 23.3171205,12.2871096 23.3004961,12.2871096 L10.6476836,12.2871096 C10.2717224,16.5583428 9.92952169,19.7947171 9.62022774,22.0018332 Z M52.3243243,11.2432432 L52.3243243,32.1640123 C52.3243243,36.3833022 48.829154,39.7837838 44.5405405,39.7837838 C43.5852372,39.7837838 42.8108108,39.0093574 42.8108108,38.0540541 C42.8108108,37.0987507 43.5852372,36.3243243 44.5405405,36.3243243 C46.9394882,36.3243243 48.8648649,34.4511086 48.8648649,32.1640123 L48.8648649,25.3008138 L44.3180812,27.1195272 C43.4311043,27.474318 42.4244527,27.0428959 42.0696619,26.155919 C41.7148712,25.2689421 42.1462933,24.2622905 43.0332702,23.9074998 L48.8648649,21.5748619 L48.8648649,11.2432432 L42.8108108,11.2432432 C41.8555075,11.2432432 41.0810811,10.4688169 41.0810811,9.51351351 C41.0810811,8.55821016 41.8555075,7.78378378 42.8108108,7.78378378 L48.8648649,7.78378378 L48.8648649,2.59459459 C48.8648649,1.63929124 49.6392912,0.864864865 50.5945946,0.864864865 C51.5498979,0.864864865 52.3243243,1.63929124 52.3243243,2.59459459 L52.3243243,7.78378378 L67.8686837,7.78378378 C71.2216693,7.78378378 73.9459459,10.4837045 73.9459459,13.8221775 L73.9459459,30.2859306 C73.9459459,33.6244036 71.2216693,36.3243243 67.8686837,36.3243243 L62.8690214,36.3243243 C59.5160359,36.3243243 56.7917592,33.6244036 56.7917592,30.2859306 L56.7917592,16.4324324 C56.7917592,15.4771291 57.5661856,14.7027027 58.5214889,14.7027027 C59.4767923,14.7027027 60.2512186,15.4771291 60.2512186,16.4324324 L60.2512186,30.2859306 C60.2512186,31.7068078 61.4197225,32.8648649 62.8690214,32.8648649 L67.8686837,32.8648649 C69.3179826,32.8648649 70.4864865,31.7068078 70.4864865,30.2859306 L70.4864865,13.8221775 C70.4864865,12.4013003 69.3179826,11.2432432 67.8686837,11.2432432 L52.3243243,11.2432432 Z" id="Shape"></path>
            </g>
            <g id="Group-15">
                <path d="M29.1921444,35.9206114 C30.2705031,34.8438394 32.0160606,34.8466517 33.0909562,35.9268929 C34.1658518,37.007134 34.1630443,38.7557386 33.0846856,39.8325106 L28.296279,44.6138712 C23.8785873,49.0251867 16.6747962,49.0891558 12.182598,44.7624665 C12.1566344,44.7375907 10.1563602,42.7762736 3.5576328,36.3057381 C-0.83233937,32.0012495 -1.26968625,25.1134588 2.86139481,20.6903197 L10.5637597,12.443047 C14.6637857,8.05269597 22.2215995,7.57285387 26.9094014,11.3638587 L33.9049908,17.0214156 C35.0896846,17.9795153 35.2747288,19.7182692 34.3182986,20.905031 C33.3618684,22.0917928 31.6261445,22.2771601 30.4414507,21.3190603 L23.4459085,15.6615416 C20.9942838,13.6789234 16.7056912,13.9512042 14.5902069,16.2164871 L6.88774296,24.4638659 C4.87663018,26.6171598 5.09689137,30.0860608 7.41454196,32.358581 C12.2601228,37.1100278 15.9945544,40.7717282 15.9988751,40.7758811 C18.3343382,43.0252903 22.110643,42.991757 24.4037103,40.7019994 L29.1921444,35.9206114 Z" id="Combined-Shape" fill="#FFA116" fill-rule="nonzero"></path>
                <path d="M17.5597801,31.1357456 C16.0371974,31.1357456 14.8029002,29.8992938 14.8029002,28.3740533 C14.8029002,26.8488127 16.0371974,25.6123609 17.5597801,25.6123609 L37.8917688,25.6123609 C39.4143515,25.6123609 40.6486486,26.8488127 40.6486486,28.3740533 C40.6486486,29.8992938 39.4143515,31.1357456 37.8917688,31.1357456 L17.5597801,31.1357456 Z" id="Path-2" fill="#B3B3B3"></path>
                <path d="M21.3675379,0.874962171 C22.4077397,-0.238841278 24.1523325,-0.297035219 25.2641951,0.744982364 C26.3760576,1.78699995 26.4341502,3.5346382 25.3939484,4.64844164 L6.88788224,24.4639437 C4.87669875,26.6170742 5.09695861,30.0859541 7.4144566,32.3585657 L15.9608318,40.7390745 C17.0488871,41.806013 17.0675128,43.5545204 16.0024336,44.644475 C14.9373543,45.7344296 13.191894,45.7530878 12.1038387,44.6861493 L3.55742395,36.3056018 C-0.83229152,32.0009083 -1.26963687,25.1131417 2.86162825,20.6902967 L21.3675379,0.874962171 Z" id="Stroke-3" fill="#FFFFFF"></path>
            </g>
        </g>
    </g>
</svg>